<?xml version="1.0" encoding="UTF-8"?>
<svg width="218px" height="27px" viewBox="0 0 218 27" version="1.1" xmlns="http://www.w3.org/2000/svg" xmlns:xlink="http://www.w3.org/1999/xlink">
    <!-- Generator: Sketch 48.1 (47250) - http://www.bohemiancoding.com/sketch -->
    <title>gen_logoHeader</title>
    <desc>Created with Sketch.</desc>
    <defs>
        <polygon id="path-1" points="1.88238764e-20 0.0548989888 1.88238764e-20 25.8295667 29.4199479 25.8295667 29.4199479 0.0548989888"></polygon>
    </defs>
    <g id="BRAND-HEADER" stroke="none" stroke-width="1" fill="none" fill-rule="evenodd">
        <g id="gen_logoHeader">
            <g id="Page-1" transform="translate(0.209414, 0.418828)">
                <g id="Group-3" transform="translate(0.000000, 0.083082)">
                    <mask id="mask-2" fill="white">
                        <use xlink:href="#path-1"></use>
                    </mask>
                    <g id="Clip-2"></g>
                    <path d="M26.8677396,4.83600304 C26.8677396,10.058381 21.1816972,20.1122051 18.1409233,24.0274262 C16.884959,21.9557649 14.4157408,19.888617 11.806238,17.7037729 C7.63311692,14.2096889 3.31797501,10.5972143 3.01205725,6.35563795 C2.90302413,4.84225239 3.23845723,3.65487487 4.00898108,2.82718247 C4.74165586,2.03941651 5.71531466,1.75888989 6.38201398,1.75888989 C8.47308862,1.75888989 10.717643,5.87200729 12.5212036,9.17687472 C14.0337776,11.9491582 15.0015334,13.6482885 15.7974057,13.6482885 C16.149159,13.6482885 16.5745271,13.2715912 16.5745271,12.803584 C16.5745271,11.6363432 20.9657144,2.29564008 25.2117557,2.29564008 C25.3815557,2.29564008 26.8677396,2.36716048 26.8677396,4.83600304 M24.4096331,0.601023211 C21.4754616,0.601023211 17.8495895,3.45975611 15.7033039,7.43573488 C13.7618893,3.27574731 9.76481856,0.0548989888 6.49521397,0.0548989888 C2.27625732,0.0548989888 -0.000243067461,3.38927727 -0.000243067461,6.52714804 C-0.000243067461,14.3322457 10.1561572,20.6663146 15.6119799,24.0690886 C16.7554387,24.7822095 17.658608,25.3453458 18.2280803,25.7713436 L18.3062091,25.8296709 L18.3888521,25.7782873 C25.4919778,21.3665896 29.4199479,11.2308295 29.4199479,5.91123935 C29.4199479,2.5862351 27.5469395,0.601023211 24.4096331,0.601023211" id="Fill-1" fill="#F76C6F" mask="url(#mask-2)"></path>
                </g>
                <path d="M65.0501653,20.9947876 C64.3622844,21.7842895 63.3014685,22.4922026 62.2979472,22.4922026 C59.9759584,22.4922026 59.8322014,19.0620009 59.8322014,17.536811 C59.8322014,16.0123155 60.0902001,12.4178946 62.441357,12.4178946 C64.9067555,12.4178946 65.0501653,15.3585635 65.0501653,16.8834062 L65.0501653,20.9947876 Z M87.58113,11.0294961 C86.2050209,11.0294961 84.9435008,11.6013121 84.1122101,12.6630082 L84.1122101,12.0790406 C84.1122101,11.5620801 84.0545684,11.0992806 83.4528028,11.0992806 L81.3884656,11.0992806 C81.0446987,11.0992806 80.7290583,11.3714747 80.7290583,11.7252577 L80.7290583,21.8210913 C80.6891257,21.8085926 80.6481515,21.7967883 80.6026632,21.7940108 C79.7182449,22.1193244 78.6053431,22.4446381 77.6927984,22.4446381 C76.5226022,22.4446381 75.6097103,22.3022917 75.6097103,20.7038454 C75.6097103,17.7229029 75.6954784,15.6088849 75.9520882,12.709184 L78.4914487,12.709184 C78.8338265,12.5741285 79.0234192,12.1908347 79.0234192,11.8662154 C79.0234192,11.5409017 78.7765321,11.2159352 78.4914487,11.0801853 L76.0659826,11.0801853 C76.1798771,10.0233499 76.2944661,9.18628347 76.4083605,7.99404534 C76.4083605,7.66942605 76.0944563,7.4791679 75.7520784,7.4791679 L74.610703,7.4791679 C74.2683251,7.4791679 74.0405362,7.77740102 73.9259473,8.12979523 L72.8418664,11.0801853 L71.3865868,11.0801853 C71.1015034,11.2159352 70.9202445,11.5409017 70.9202445,11.8662154 C70.9202445,12.1908347 71.0730298,12.5741285 71.3865868,12.709184 L72.6425511,12.709184 C72.5279621,14.6874521 72.3282996,16.6653731 72.3282996,18.5898274 C72.3282996,20.0723134 72.4178873,21.190948 72.6963732,22.0182932 C71.9838383,22.2595877 71.2101892,22.4734546 70.5257807,22.4734546 C69.3503759,22.4734546 68.4329699,22.3561056 68.4329699,20.749674 L68.4329699,17.8961489 C68.452068,15.9230886 68.4065797,12.2304139 68.4065797,12.2304139 C68.3836619,11.6384611 68.5093625,11.1315689 67.8378018,11.1291386 L65.5491481,11.1218477 C65.2140622,11.1208061 65.0546794,11.3003015 65.0001629,11.5558307 C64.2765163,11.2534314 63.438628,11.073936 62.4698306,11.0840044 C58.313377,11.1270555 56.4782177,13.9427373 56.4782177,17.5642387 C56.4782177,19.0970667 56.861917,20.781268 57.7293206,22.0526646 C57.1980446,22.2578518 56.6056545,22.4356112 55.735473,22.4609559 C54.5319418,22.4960217 53.6426621,22.3561056 53.6426621,20.749674 L53.6426621,15.8762184 C53.6426621,13.0167911 53.4707787,11.0840044 50.2883312,11.0840044 C48.6830442,11.0840044 47.6222284,11.8735063 46.7048223,12.9626301 C46.3034138,11.5197233 44.9561256,11.0840044 43.5800165,11.0840044 C42.0316768,11.0840044 41.0285026,11.7919175 40.1968647,12.6900887 L40.2430475,11.6981771 C40.2430475,11.344047 39.9277543,11.0718529 39.5551666,11.0718529 L37.5196502,11.0718529 C37.1470625,11.0718529 36.831422,11.344047 36.831422,11.6981771 L36.7855865,23.4028726 C36.7855865,23.7570027 37.1008797,24.0291969 37.4734674,24.0291969 L39.5089838,24.0291969 C39.8819187,24.0291969 40.1968647,23.7570027 40.1968647,23.4028726 L40.1968647,14.1604232 C40.856272,13.3438407 41.6021418,12.6900887 42.4619062,12.6900887 C43.0928398,12.6900887 43.522722,13.2077437 43.522722,14.6232227 L43.522722,23.4028726 C43.522722,23.7570027 43.8380152,24.0291969 44.2106029,24.0291969 L46.2176457,24.0291969 C46.5902334,24.0291969 46.9055266,23.7570027 46.9055266,23.4028726 L46.9055266,14.1604232 C47.5937547,13.316413 48.4250455,12.6900887 49.1417472,12.6900887 C50.0303324,12.6900887 50.2598575,13.316413 50.2598575,14.9502722 L50.2598575,19.3338479 C50.2598575,22.2745168 50.6324452,24.0715536 54.4739528,24.0715536 C55.6257454,24.0715536 57.9053709,23.794846 58.8835438,23.2553184 C59.5880922,23.7635993 60.4610516,24.0715536 61.5239509,24.0715536 C62.9285336,24.0715536 64.2761691,23.3091323 65.3654585,22.1380725 C65.7668671,23.5816736 67.4582694,24.0715536 69.2642606,24.0715536 C70.8344764,24.0715536 72.2914922,23.7944989 73.5196774,23.2799686 C74.1426245,23.791027 75.0669754,24.0094072 76.4368341,24.0094072 C77.5657089,24.0094072 79.7481074,23.7424209 80.7290583,23.2209469 L80.7290583,23.4028726 C80.7290583,23.7570027 81.0446987,24.0291969 81.3884656,24.0291969 L83.4528028,24.0291969 C83.8253905,24.0291969 84.1122101,23.7570027 84.1122101,23.4028726 L84.1122101,14.1604232 C84.8573855,13.0987271 85.6029081,12.6630082 86.3192626,12.6630082 C87.0074908,12.6630082 87.6668981,13.0442189 88.2117164,13.6160349 C88.2690109,13.6705431 88.3551262,13.6979709 88.4412416,13.6979709 C88.613125,13.6979709 88.7853556,13.5886071 88.8138292,13.4254295 L89.4728893,11.7099815 C89.5017102,11.6558204 89.5017102,11.6283927 89.5017102,11.6013121 C89.5017102,11.1930209 88.1259483,11.0294961 87.58113,11.0294961 Z" id="Fill-4" fill="#3A3A3A"></path>
                <path d="M123.469416,22.7373162 C121.118259,22.7373162 120.86026,19.0887343 120.86026,17.536811 C120.86026,16.0123155 121.14708,12.4178946 123.526363,12.4178946 C125.848699,12.4178946 126.106698,16.0123155 126.106698,17.536811 C126.106698,19.0887343 125.819878,22.7373162 123.469416,22.7373162 M123.497889,11.0840044 C119.340741,11.0840044 117.506276,13.9427373 117.506276,17.5642387 C117.506276,19.3227379 117.9372,20.8937564 118.844536,22.0537062 C118.156655,22.2588934 117.419119,22.4172104 116.763184,22.4172104 C115.559306,22.4172104 114.670373,22.3561056 114.670373,20.749674 L114.670373,15.8762184 C114.670373,13.0167911 114.498143,11.0840044 111.316043,11.0840044 C109.710756,11.0840044 108.649592,11.8735063 107.732534,12.9626301 C107.331125,11.5197233 105.98349,11.0840044 104.607728,11.0840044 C103.059388,11.0840044 102.055867,11.7919175 101.224576,12.6900887 L101.224576,11.6981771 C101.224576,11.344047 100.909283,11.0718529 100.536695,11.0718529 L98.5011787,11.0718529 C98.128591,11.0718529 97.8129506,11.344047 97.8129506,11.6981771 L97.8129506,22.2148007 C97.2556316,22.3595774 96.6875482,22.4609559 96.1802317,22.4609559 C95.0044797,22.4609559 94.0301264,22.3835333 94.0301264,20.7771018 C94.0301264,17.5093833 94.173189,14.8291042 94.4888294,11.6436689 C94.4888294,11.3166193 94.2020098,11.0718529 93.8006013,11.0718529 L91.8796739,11.0718529 C91.4497917,11.0718529 91.2490874,11.3166193 91.1917929,11.6981771 C90.9049733,13.8219164 90.818858,16.5567038 90.818858,18.626282 C90.818858,22.7102357 91.4213181,24.0715536 94.9187116,24.0715536 C95.6704845,24.0715536 96.8882525,23.9535102 97.9112193,23.7219369 C98.032753,23.9069872 98.2529027,24.0291969 98.5011787,24.0291969 L100.536695,24.0291969 C100.909283,24.0291969 101.224576,23.7570027 101.224576,23.4028726 L101.224576,14.1604232 C101.883983,13.3438407 102.629506,12.6900887 103.48927,12.6900887 C104.120204,12.6900887 104.550433,13.2077437 104.550433,14.6232227 L104.550433,23.4028726 C104.550433,23.7570027 104.865727,24.0291969 105.238314,24.0291969 L107.24501,24.0291969 C107.617945,24.0291969 107.933238,23.7570027 107.933238,23.4028726 L107.933238,14.1604232 C108.621119,13.316413 109.452757,12.6900887 110.169111,12.6900887 C111.058044,12.6900887 111.287569,13.316413 111.287569,14.9502722 L111.287569,19.3338479 C111.287569,22.2745168 111.660157,24.0715536 115.501664,24.0715536 C116.717349,24.0715536 119.190039,23.7635993 120.061957,23.163314 C120.956098,23.7379075 122.090876,24.0715536 123.497889,24.0715536 C127.625869,24.0715536 129.460681,21.2128207 129.460681,17.5642387 C129.460681,13.9427373 127.625869,11.0840044 123.497889,11.0840044" id="Fill-6" fill="#3A3A3A"></path>
                <path d="M157.895789,22.7373162 C155.54498,22.7373162 155.286981,19.0887343 155.286981,17.536811 C155.286981,16.0123155 155.573801,12.4178946 157.953431,12.4178946 C160.27542,12.4178946 160.533418,16.0123155 160.533418,17.536811 C160.533418,19.0887343 160.246946,22.7373162 157.895789,22.7373162 M157.924263,11.0840044 C153.767809,11.0840044 151.932997,13.9427373 151.932997,17.5642387 C151.932997,19.3262098 152.365657,20.9000058 153.276119,22.0606499 C152.597266,22.2623652 151.874661,22.4172104 151.245464,22.4172104 C150.070059,22.4172104 149.095705,22.3835333 149.095705,20.7771018 C149.095705,17.5093833 149.238421,14.8291042 149.554061,11.6436689 C149.554061,11.3166193 149.267589,11.0718529 148.86618,11.0718529 L146.945253,11.0718529 C146.515023,11.0718529 146.314666,11.3166193 146.257025,11.6981771 C145.970552,13.8219164 145.884437,16.5567038 145.884437,18.626282 C145.884437,20.1598043 145.969511,21.3093385 146.260844,22.1470993 C145.671927,22.304722 145.062522,22.4172104 144.510759,22.4172104 C143.306186,22.4172104 142.417601,22.3561056 142.417601,20.749674 L142.417601,15.8762184 C142.417601,13.2893325 142.188075,11.0840044 138.862565,11.0840044 C137.314573,11.0840044 136.311051,11.6283927 135.221415,12.6900887 L135.221415,11.6981771 C135.221415,11.344047 134.906469,11.0718529 134.562355,11.0718529 L132.498017,11.0718529 C132.153903,11.0718529 131.838957,11.344047 131.838957,11.6981771 L131.838957,23.4028726 C131.838957,23.7570027 132.153903,24.0291969 132.498017,24.0291969 L134.562355,24.0291969 C134.906469,24.0291969 135.221415,23.7570027 135.221415,23.4028726 L135.221415,14.1604232 C135.881169,13.3438407 136.941638,12.6900887 137.744455,12.6900887 C138.489978,12.6900887 139.034796,13.2893325 139.034796,14.9502722 L139.034796,19.3338479 C139.034796,22.2745168 139.407036,24.0715536 143.248891,24.0715536 C144.24651,24.0715536 146.09035,23.8639361 147.201863,23.457728 C147.81856,23.8871976 148.706798,24.0715536 149.984291,24.0715536 C151.198933,24.0715536 153.631344,23.7642936 154.490761,23.1643555 C155.384208,23.7382547 156.518291,24.0715536 157.924263,24.0715536 C162.052937,24.0715536 163.887749,21.2128207 163.887749,17.5642387 C163.887749,13.9427373 162.052937,11.0840044 157.924263,11.0840044" id="Fill-8" fill="#3A3A3A"></path>
                <path d="M148.194446,9.05685238 C149.092754,9.05685238 149.878904,8.32706655 149.878904,7.4570174 C149.878904,6.58696826 149.092754,5.85718243 148.194446,5.85718243 C147.324265,5.85718243 146.538115,6.58696826 146.538115,7.4570174 C146.538115,8.32706655 147.324265,9.05685238 148.194446,9.05685238" id="Fill-10" fill="#3A3A3A"></path>
                <path d="M93.1326172,9.07990556 C94.0309251,9.07990556 94.8170747,8.35011972 94.8170747,7.48007058 C94.8170747,6.61002144 94.0309251,5.8802356 93.1326172,5.8802356 C92.2624357,5.8802356 91.4766333,6.61002144 91.4766333,7.48007058 C91.4766333,8.35011972 92.2624357,9.07990556 93.1326172,9.07990556" id="Fill-12" fill="#3A3A3A"></path>
                <path d="M179.647237,22.1780684 C178.878796,22.421446 177.483589,22.7738402 176.771749,22.7738402 C174.636922,22.7738402 173.868481,20.9070189 173.868481,17.5254233 C173.868481,15.7131102 174.124744,12.4131034 176.828696,12.4131034 C177.283926,12.4131034 177.682904,12.4939978 179.191659,12.9540198 C179.561468,12.9540198 179.87572,12.6839088 179.87572,12.3318618 C179.87572,11.4659789 177.227326,11.1684401 176.146023,11.1684401 C172.388548,11.1684401 170.509983,14.1174415 170.509983,17.4986899 C170.509983,21.0969299 172.24618,24.0448897 176.259571,24.0448897 C177.51241,24.0448897 179.248606,23.6661093 180.188583,23.179354 C180.272962,23.0436041 180.330951,22.9092429 180.330951,22.7738402 C180.330951,22.4759543 180.102814,22.2058433 179.647237,22.1780684" id="Fill-14" fill="#3A3A3A"></path>
                <path d="M186.627787,22.7470027 C184.292256,22.7470027 184.03634,19.1223766 184.03634,17.5801746 C184.03634,16.0654003 184.321424,12.4938937 186.684734,12.4938937 C188.989708,12.4938937 189.245971,16.0654003 189.245971,17.5801746 C189.245971,19.1223766 188.961929,22.7470027 186.627787,22.7470027 M186.655566,11.168336 C182.52828,11.168336 180.706663,14.0097095 180.706663,17.6065608 C180.706663,21.2315341 182.52828,24.0715189 186.655566,24.0715189 C190.754725,24.0715189 192.576689,21.2315341 192.576689,17.6065608 C192.576689,14.0097095 190.754725,11.168336 186.655566,11.168336" id="Fill-16" fill="#3A3A3A"></path>
                <path d="M167.230031,20.8461224 C166.365058,20.8461224 165.583423,21.5713948 165.583423,22.4365834 C165.583423,23.3017719 166.365058,24.0273915 167.230031,24.0273915 C168.12313,24.0273915 168.904766,23.3017719 168.904766,22.4365834 C168.904766,21.5713948 168.12313,20.8461224 167.230031,20.8461224" id="Fill-18" fill="#3A3A3A"></path>
                <path d="M216.797598,21.8744539 C216.672592,21.8022391 216.517723,21.7991144 216.384036,21.8529283 C215.66664,22.1417874 214.995426,22.4719617 213.785992,22.5073747 C212.591489,22.5420933 211.70846,22.4032188 211.70846,20.8103275 L211.70846,15.9764511 C211.70846,13.1406325 211.537965,11.2234692 208.37913,11.2234692 C207.022119,11.2234692 206.057141,11.7914661 205.238004,12.6271438 C205.049453,12.8198323 204.732424,12.7792115 204.601862,12.5431247 C204.04871,11.5432279 202.894834,11.2234692 201.720123,11.2234692 C200.584651,11.2234692 199.743985,11.6071102 199.049854,12.1667746 C198.78491,12.3799471 198.391835,12.1723296 198.407808,11.8327813 C198.407808,11.4814287 198.094598,11.2116648 197.724789,11.2116648 L195.704204,11.2116648 C195.334394,11.2116648 194.957639,11.4814287 194.957639,11.8327813 L194.975696,23.4413061 C194.975696,23.7926588 195.288905,24.0627698 195.658715,24.0627698 L197.6793,24.0627698 C198.04911,24.0627698 198.361973,23.7926588 198.361973,23.4413061 L198.361973,14.4200144 C198.361973,14.3262741 198.394266,14.2342697 198.454686,14.1624021 C199.085966,13.4055358 199.796765,12.8167076 200.610347,12.8167076 C201.236419,12.8167076 201.663523,13.3298491 201.663523,14.733871 L201.663523,23.4413061 C201.663523,23.7926588 201.976386,24.0627698 202.346196,24.0627698 L204.338307,24.0627698 C204.708464,24.0627698 205.020979,23.7926588 205.020979,23.4413061 L205.020979,14.4224447 C205.020979,14.3273157 205.054314,14.2335753 205.116123,14.1610134 C205.779697,13.3822743 206.562027,12.8167076 207.24088,12.8167076 C208.122867,12.8167076 208.350656,13.4378241 208.350656,15.0581431 L208.350656,19.4059585 C208.350656,22.3223243 208.720466,24.1044322 212.533847,24.1044322 C214.013434,24.1044322 217.371584,23.6454517 217.371584,22.7545714 C217.371584,22.5375799 217.128864,22.0661007 216.797598,21.8744539" id="Fill-20" fill="#3A3A3A"></path>
            </g>
        </g>
    </g>
</svg>